<svg id="Layer_1" data-name="Layer 1" xmlns="http://www.w3.org/2000/svg" viewBox="0 0 24 24"><defs><style>.cls-1{fill:none;}</style></defs><path class="cls-1" d="M0,0H24V24H0Z"/><path d="M12,9a3,3,0,1,0,3,3A3,3,0,0,0,12,9Zm0-2a5,5,0,1,1-5,5A5,5,0,0,1,12,7Zm6.5-.25A1.25,1.25,0,1,1,17.25,5.5,1.25,1.25,0,0,1,18.5,6.75ZM12,4C9.53,4,9.12,4,8,4.06a5.56,5.56,0,0,0-1.8.33,3,3,0,0,0-1.08.7,3,3,0,0,0-.7,1.08A5.31,5.31,0,0,0,4.06,8C4,9.07,4,9.46,4,12s0,2.88.06,4a5.56,5.56,0,0,0,.33,1.8,3.08,3.08,0,0,0,1.78,1.78,5.31,5.31,0,0,0,1.8.33c1.1,0,1.49.06,4,.06s2.88,0,4-.06a5.56,5.56,0,0,0,1.8-.33,3.08,3.08,0,0,0,1.78-1.78,5.31,5.31,0,0,0,.33-1.8c0-1.1.06-1.49.06-4s0-2.88-.06-4a5.31,5.31,0,0,0-.33-1.8,3,3,0,0,0-.7-1.08,3,3,0,0,0-1.08-.7A5.31,5.31,0,0,0,16,4.06C14.93,4,14.54,4,12,4Zm0-2c2.72,0,3.06,0,4.12.06a7.59,7.59,0,0,1,2.43.46,4.85,4.85,0,0,1,1.77,1.16,4.84,4.84,0,0,1,1.15,1.77,7.3,7.3,0,0,1,.47,2.43C22,8.94,22,9.28,22,12s0,3.06-.06,4.12a7.3,7.3,0,0,1-.47,2.43,5.08,5.08,0,0,1-2.92,2.92,7.3,7.3,0,0,1-2.43.47c-1.06,0-1.4.06-4.12.06s-3.06,0-4.12-.06a7.3,7.3,0,0,1-2.43-.47,4.84,4.84,0,0,1-1.77-1.15,4.84,4.84,0,0,1-1.15-1.77,7.3,7.3,0,0,1-.47-2.43C2,15.06,2,14.72,2,12s0-3.06.06-4.12a7.59,7.59,0,0,1,.46-2.43A5,5,0,0,1,3.68,3.68,4.84,4.84,0,0,1,5.45,2.53a7.3,7.3,0,0,1,2.43-.47C8.94,2,9.28,2,12,2Z"/></svg>